<svg xmlns="http://www.w3.org/2000/svg"><path fill="currentColor" fill-rule="evenodd" d="M1.09 8.048c-1.093-.52-1.066-2.07.044-2.55L12.449.588a7.133 7.133 0 0 1 5.673 0l11.316 4.91c1.109.48 1.136 2.03.044 2.55l-9.304 4.42a11.405 11.405 0 0 1-9.784 0l-9.305-4.42zm28.347 6.02c1.11.482 1.137 2.033.045 2.551l-9.305 4.422a11.41 11.41 0 0 1-9.784 0L1.09 16.619c-1.091-.518-1.065-2.069.045-2.55l2.67-1.159 6.59 3.13a11.41 11.41 0 0 0 9.783 0l6.59-3.13 2.67 1.159zm0 8.572c1.11.482 1.137 2.032.045 2.55l-9.305 4.422a11.41 11.41 0 0 1-9.784 0L1.09 25.191c-1.091-.519-1.065-2.07.045-2.55l2.67-1.16 6.59 3.131a11.41 11.41 0 0 0 9.783 0l6.59-3.13 2.67 1.158z"/></svg>